<?xml version="1.0" encoding="UTF-8"?>
<svg width="574px" height="575px" viewBox="0 0 574 575" version="1.1" xmlns="http://www.w3.org/2000/svg" xmlns:xlink="http://www.w3.org/1999/xlink">
    <title>logo_elastic_mobile</title>
    <g id="logo_elastic_mobile" stroke="none" stroke-width="1" fill="none" fill-rule="evenodd">
        <g id="002-mailbox-1" transform="translate(49.000000, 0.000000)" fill="#ffffff" fill-rule="nonzero">
            <path d="M367.460937,172.5 L302.773437,172.5 L302.773437,129.375 L396.210937,129.375 C408.119727,129.375 417.773437,119.721289 417.773437,107.8125 L417.773437,21.5625 C417.773437,9.65371094 408.119727,0 396.210937,0 L281.210937,0 C269.302148,0 259.648437,9.65371094 259.648437,21.5625 L259.648437,107.8125 L259.648437,172.5 L108.710937,172.5 C49.2635742,172.5 0.8984375,220.865137 0.8984375,280.3125 L0.8984375,452.8125 C0.8984375,464.721289 10.5521484,474.375 22.4609375,474.375 L108.710937,474.375 L194.960937,474.375 L259.648437,474.375 L259.648437,553.4375 C259.648437,565.346289 269.302148,575 281.210937,575 C293.119727,575 302.773437,565.346289 302.773437,553.4375 L302.773437,474.375 L453.710937,474.375 C465.619727,474.375 475.273437,464.721289 475.273437,452.8125 L475.273437,280.3125 C475.273437,220.865137 426.908301,172.5 367.460937,172.5 Z M302.773437,43.125 L374.648437,43.125 L374.648437,86.25 L302.773437,86.25 L302.773437,43.125 Z M173.398437,431.25 L108.710937,431.25 L44.0234375,431.25 L44.0234375,280.3125 C44.0234375,244.642285 73.0418457,215.625 108.710937,215.625 C144.380029,215.625 173.398437,244.642285 173.398437,280.3125 L173.398437,431.25 Z M432.148437,431.25 L216.523437,431.25 L216.523437,280.3125 C216.523437,256.060303 208.468945,233.656641 194.901416,215.625 L259.648437,215.625 L259.648437,280.3125 C259.648437,292.221289 269.302148,301.875 281.210937,301.875 C293.119727,301.875 302.773437,292.221289 302.773437,280.3125 L302.773437,215.625 L367.460937,215.625 C403.131152,215.625 432.148437,244.642285 432.148437,280.3125 L432.148437,431.25 Z" id="Shape"></path>
        </g>
    </g>
</svg>
